<svg xmlns="http://www.w3.org/2000/svg" xmlns:xlink="http://www.w3.org/1999/xlink" width="500" zoomAndPan="magnify" viewBox="0 0 375 374.999991" height="500" preserveAspectRatio="xMidYMid meet" version="1.0"><defs><clipPath id="a75aa90068"><path d="M 201 45.582031 L 278 45.582031 L 278 62 L 201 62 Z M 201 45.582031 " clip-rule="nonzero"/></clipPath><clipPath id="5623a14354"><path d="M 302 255 L 349.144531 255 L 349.144531 277 L 302 277 Z M 302 255 " clip-rule="nonzero"/></clipPath><clipPath id="9d6c9067d6"><path d="M 77 274 L 134 274 L 134 329.082031 L 77 329.082031 Z M 77 274 " clip-rule="nonzero"/></clipPath><clipPath id="2eb447aa09"><path d="M 289 272 L 346 272 L 346 329.082031 L 289 329.082031 Z M 289 272 " clip-rule="nonzero"/></clipPath><clipPath id="75899b7af8"><path d="M 25.894531 193 L 56 193 L 56 200 L 25.894531 200 Z M 25.894531 193 " clip-rule="nonzero"/></clipPath></defs><path fill="#ffffff" d="M 200.238281 141.242188 C 200.238281 142.691406 199.066406 143.867188 197.613281 143.867188 L 185.976562 143.867188 C 179.9375 160.984375 179.488281 176.292969 184.683594 189.410156 C 193.414062 211.445312 217.804688 226.460938 246.820312 227.667969 C 248.179688 227.726562 249.367188 228.910156 249.433594 230.261719 L 251.910156 274.886719 C 252.136719 278.890625 254.992188 282.234375 258.707031 282.832031 C 261.222656 283.242188 263.65625 282.554688 265.535156 280.886719 C 267.386719 279.242188 268.386719 276.886719 268.28125 274.414062 L 267.101562 247.347656 C 267.101562 247.339844 267.101562 247.332031 267.101562 247.324219 L 265.75 216.222656 C 259.355469 210.945312 252.53125 206.109375 245.441406 201.832031 C 237.738281 197.183594 229.609375 193.128906 221.28125 189.769531 C 221.125 189.710938 220.980469 189.632812 220.839844 189.542969 C 220.445312 189.289062 220.085938 188.890625 219.875 188.46875 C 219.636719 188 219.539062 187.414062 219.609375 186.890625 L 222.621094 147.734375 L 211.527344 140.351562 C 210.320312 139.546875 209.992188 137.917969 210.800781 136.710938 C 211.601562 135.503906 213.238281 135.175781 214.445312 135.984375 L 232.230469 147.824219 L 267.375 147.824219 C 267.789062 147.824219 268.195312 147.769531 268.601562 147.707031 C 266.832031 146.101562 265.699219 143.808594 265.699219 141.238281 C 265.699219 138.304688 267.164062 135.714844 269.382812 134.125 C 269.09375 134.066406 268.804688 133.984375 268.507812 133.960938 L 237.449219 131.578125 C 236.390625 131.496094 235.394531 130.710938 235.066406 129.699219 C 233.78125 125.546875 231.84375 121.695312 229.3125 118.214844 C 227.765625 116.089844 225.957031 114.152344 224.003906 112.371094 C 222.195312 112.707031 220.335938 112.90625 218.429688 112.90625 C 214.472656 112.90625 210.695312 112.121094 207.226562 110.734375 C 203.160156 114.609375 199.527344 118.785156 196.394531 123.261719 L 200.695312 123.261719 C 202.148438 123.261719 203.324219 124.4375 203.324219 125.886719 C 203.324219 127.335938 202.148438 128.511719 200.695312 128.511719 L 193.039062 128.511719 C 191.125 131.753906 189.429688 135.121094 187.984375 138.617188 L 197.609375 138.617188 C 199.066406 138.617188 200.238281 139.792969 200.238281 141.242188 Z M 200.238281 141.242188 " fill-opacity="1" fill-rule="nonzero"/><path fill="#ffffff" d="M 218.421875 107.660156 C 232.230469 107.660156 243.464844 96.441406 243.464844 82.648438 C 243.464844 76.980469 241.519531 71.511719 238.003906 67.097656 L 198.867188 67.097656 C 195.292969 71.539062 193.382812 76.882812 193.382812 82.648438 C 193.382812 96.441406 204.617188 107.660156 218.421875 107.660156 Z M 218.421875 107.660156 " fill-opacity="1" fill-rule="nonzero"/><path fill="#ffffff" d="M 119.777344 197.042969 C 118.296875 197.796875 114.796875 199.933594 114.199219 203.425781 C 114.078125 204.117188 114.0625 204.765625 114.140625 205.414062 C 114.96875 212.09375 126.898438 219.339844 145.429688 219.902344 L 209.539062 223.15625 C 198.367188 217.214844 189.292969 208.835938 183.414062 198.703125 C 173.105469 195.101562 162.363281 193.175781 151.457031 193.007812 C 137.210938 192.78125 126.933594 193.375 119.777344 197.042969 Z M 119.777344 197.042969 " fill-opacity="1" fill-rule="nonzero"/><path fill="#ffffff" d="M 110.9375 211.425781 L 58.820312 211.425781 L 58.820312 218.460938 L 118.710938 218.460938 C 115.296875 216.449219 112.625 214.074219 110.9375 211.425781 Z M 110.9375 211.425781 " fill-opacity="1" fill-rule="nonzero"/><path fill="#ffffff" d="M 102.304688 183.789062 L 72.5 183.789062 L 68.546875 206.175781 L 108.945312 206.175781 C 108.941406 206.132812 108.925781 206.09375 108.921875 206.054688 C 108.777344 204.902344 108.808594 203.71875 109.015625 202.535156 C 109.722656 198.429688 112.769531 194.722656 117.378906 192.367188 C 125.140625 188.398438 135.722656 187.703125 146.40625 187.710938 L 151.4375 159.21875 L 76.84375 159.21875 L 76.144531 163.183594 L 93.085938 163.183594 C 94.539062 163.183594 95.714844 164.359375 95.714844 165.808594 C 95.714844 167.257812 94.539062 168.433594 93.085938 168.433594 L 75.214844 168.433594 L 73.429688 178.535156 L 102.308594 178.535156 C 103.761719 178.535156 104.9375 179.710938 104.9375 181.160156 C 104.9375 182.609375 103.757812 183.789062 102.304688 183.789062 Z M 102.304688 183.789062 " fill-opacity="1" fill-rule="nonzero"/><path fill="#ffffff" d="M 121.199219 297.859375 C 121.199219 298.433594 121.171875 299.011719 121.121094 299.585938 C 121.070312 300.160156 120.996094 300.734375 120.894531 301.300781 C 120.792969 301.867188 120.667969 302.425781 120.519531 302.980469 C 120.367188 303.53125 120.191406 304.074219 119.996094 304.609375 C 119.796875 305.144531 119.574219 305.664062 119.332031 306.175781 C 119.085938 306.683594 118.820312 307.179688 118.53125 307.660156 C 118.246094 308.140625 117.9375 308.601562 117.609375 309.050781 C 117.28125 309.496094 116.933594 309.925781 116.566406 310.332031 C 116.199219 310.742188 115.816406 311.128906 115.414062 311.496094 C 115.015625 311.863281 114.601562 312.207031 114.167969 312.527344 C 113.738281 312.847656 113.292969 313.144531 112.835938 313.417969 C 112.378906 313.691406 111.914062 313.9375 111.433594 314.15625 C 110.957031 314.378906 110.46875 314.574219 109.972656 314.742188 C 109.476562 314.910156 108.976562 315.046875 108.464844 315.160156 C 107.957031 315.273438 107.445312 315.359375 106.929688 315.414062 C 106.414062 315.472656 105.898438 315.5 105.378906 315.5 C 104.863281 315.5 104.347656 315.472656 103.832031 315.414062 C 103.316406 315.359375 102.804688 315.273438 102.292969 315.160156 C 101.785156 315.046875 101.285156 314.910156 100.789062 314.742188 C 100.292969 314.574219 99.804688 314.378906 99.328125 314.15625 C 98.847656 313.9375 98.382812 313.691406 97.925781 313.417969 C 97.46875 313.144531 97.023438 312.847656 96.59375 312.527344 C 96.160156 312.207031 95.746094 311.863281 95.347656 311.496094 C 94.945312 311.128906 94.5625 310.742188 94.195312 310.332031 C 93.828125 309.925781 93.480469 309.496094 93.152344 309.050781 C 92.824219 308.601562 92.515625 308.140625 92.226562 307.660156 C 91.941406 307.179688 91.675781 306.683594 91.429688 306.175781 C 91.1875 305.664062 90.964844 305.144531 90.765625 304.609375 C 90.566406 304.074219 90.394531 303.53125 90.242188 302.980469 C 90.09375 302.425781 89.96875 301.867188 89.867188 301.300781 C 89.765625 300.734375 89.691406 300.160156 89.640625 299.585938 C 89.589844 299.011719 89.5625 298.433594 89.5625 297.859375 C 89.5625 297.28125 89.589844 296.703125 89.640625 296.128906 C 89.691406 295.554688 89.765625 294.980469 89.867188 294.414062 C 89.96875 293.847656 90.09375 293.289062 90.242188 292.734375 C 90.394531 292.183594 90.566406 291.640625 90.765625 291.105469 C 90.964844 290.570312 91.1875 290.050781 91.429688 289.539062 C 91.675781 289.03125 91.941406 288.535156 92.226562 288.054688 C 92.515625 287.574219 92.824219 287.113281 93.152344 286.664062 C 93.480469 286.21875 93.828125 285.789062 94.195312 285.382812 C 94.5625 284.972656 94.945312 284.585938 95.347656 284.21875 C 95.746094 283.851562 96.160156 283.507812 96.59375 283.1875 C 97.023438 282.867188 97.46875 282.570312 97.925781 282.296875 C 98.382812 282.027344 98.847656 281.777344 99.328125 281.558594 C 99.804688 281.335938 100.292969 281.140625 100.789062 280.972656 C 101.285156 280.808594 101.785156 280.667969 102.292969 280.554688 C 102.804688 280.441406 103.316406 280.355469 103.832031 280.300781 C 104.347656 280.242188 104.863281 280.214844 105.378906 280.214844 C 105.898438 280.214844 106.414062 280.242188 106.929688 280.300781 C 107.445312 280.355469 107.957031 280.441406 108.464844 280.554688 C 108.976562 280.667969 109.476562 280.808594 109.972656 280.972656 C 110.46875 281.140625 110.957031 281.335938 111.433594 281.558594 C 111.914062 281.777344 112.378906 282.027344 112.835938 282.296875 C 113.292969 282.570312 113.738281 282.867188 114.167969 283.1875 C 114.601562 283.507812 115.015625 283.851562 115.414062 284.21875 C 115.816406 284.585938 116.199219 284.972656 116.566406 285.382812 C 116.933594 285.789062 117.28125 286.21875 117.609375 286.664062 C 117.9375 287.113281 118.246094 287.574219 118.53125 288.054688 C 118.820312 288.535156 119.085938 289.03125 119.332031 289.539062 C 119.574219 290.050781 119.796875 290.570312 119.996094 291.105469 C 120.191406 291.640625 120.367188 292.183594 120.519531 292.734375 C 120.667969 293.289062 120.792969 293.847656 120.894531 294.414062 C 120.996094 294.980469 121.070312 295.554688 121.121094 296.128906 C 121.171875 296.703125 121.199219 297.28125 121.199219 297.859375 Z M 121.199219 297.859375 " fill-opacity="1" fill-rule="nonzero"/><g clip-path="url(#a75aa90068)"><path fill="#ffffff" d="M 277.992188 58.332031 C 277.992188 56.390625 276.410156 54.8125 274.46875 54.8125 L 249.875 54.8125 C 248.421875 54.8125 247.25 53.636719 247.25 52.191406 L 247.25 45.601562 L 208.566406 45.601562 L 201.597656 61.847656 L 274.472656 61.847656 C 276.410156 61.847656 277.992188 60.269531 277.992188 58.332031 Z M 277.992188 58.332031 " fill-opacity="1" fill-rule="nonzero"/></g><path fill="#ffffff" d="M 194.984375 257.863281 C 195.289062 247.046875 189.5 237.238281 183.625 232.308594 C 170.433594 221.25 142.652344 225.292969 112.851562 242.605469 C 111.59375 243.332031 109.988281 242.910156 109.257812 241.660156 C 108.527344 240.40625 108.953125 238.796875 110.207031 238.070312 C 120.511719 232.085938 130.519531 227.652344 139.871094 224.773438 C 134.9375 224.269531 130.375 223.285156 126.34375 221.910156 L 121.628906 223.566406 C 112.855469 227.003906 104.859375 231.992188 97.945312 238.371094 C 93.085938 242.851562 89.273438 247.597656 86.210938 252.246094 L 123.828125 252.246094 C 125.28125 252.246094 126.453125 253.421875 126.453125 254.871094 C 126.453125 256.324219 125.28125 257.496094 123.828125 257.496094 L 83.003906 257.496094 C 80.914062 261.296875 79.328125 264.925781 78.132812 268.160156 L 179.085938 285.492188 C 183.632812 282.121094 194.570312 272.519531 194.984375 257.863281 Z M 194.984375 257.863281 " fill-opacity="1" fill-rule="nonzero"/><path fill="#ffffff" d="M 290.546875 262.941406 C 294.976562 253.730469 298.476562 242.386719 296.4375 196.636719 C 295.941406 185.445312 295.234375 174.410156 294.332031 163.703125 L 289.1875 176.03125 C 288.78125 177.007812 287.824219 177.644531 286.761719 177.644531 L 283.246094 177.644531 L 283.246094 205.726562 C 283.246094 224.746094 280.980469 232.695312 276.796875 240.71875 C 275.527344 243.15625 274.023438 245.5 272.375 247.746094 L 273.527344 274.1875 C 273.664062 277.386719 272.65625 280.460938 270.738281 282.945312 L 276.441406 282.945312 C 282.308594 276.9375 287.050781 270.210938 290.546875 262.941406 Z M 290.546875 262.941406 " fill-opacity="1" fill-rule="nonzero"/><path fill="#ffffff" d="M 317.507812 315.5 C 326.230469 315.5 333.328125 307.585938 333.328125 297.859375 C 333.328125 288.128906 326.234375 280.214844 317.507812 280.214844 C 308.789062 280.214844 301.691406 288.128906 301.691406 297.859375 C 301.691406 307.585938 308.789062 315.5 317.507812 315.5 Z M 317.507812 315.5 " fill-opacity="1" fill-rule="nonzero"/><g clip-path="url(#5623a14354)"><path fill="#ffffff" d="M 303.488281 273.585938 C 303.082031 274.691406 302.667969 275.808594 302.234375 276.929688 C 308.535156 272.734375 316.566406 269.019531 326.359375 267.621094 C 328.863281 267.265625 331.398438 267.140625 333.9375 267.121094 C 334.316406 267.042969 334.703125 267.035156 335.082031 267.128906 C 339.769531 267.179688 344.46875 267.722656 349.074219 268.886719 C 346.457031 264.964844 342.011719 260.117188 334.980469 257.304688 C 325.273438 253.421875 316.601562 255.710938 312.851562 257.109375 C 307.65625 262.3125 305.617188 267.792969 303.488281 273.585938 Z M 303.488281 273.585938 " fill-opacity="1" fill-rule="nonzero"/></g><path fill="#ffffff" d="M 289.394531 141.242188 C 289.394531 144.683594 287.382812 147.640625 284.484375 149.074219 L 287.742188 159.929688 L 300 142.789062 C 300.046875 142.726562 300.101562 142.679688 300.152344 142.621094 C 300.199219 142.570312 300.238281 142.523438 300.289062 142.472656 C 300.503906 142.257812 300.746094 142.078125 301.019531 141.949219 C 301.035156 141.941406 301.042969 141.929688 301.058594 141.921875 C 301.089844 141.910156 301.125 141.914062 301.152344 141.902344 C 301.414062 141.792969 301.695312 141.726562 301.984375 141.710938 C 302.027344 141.707031 302.070312 141.695312 302.109375 141.695312 C 302.121094 141.695312 302.128906 141.691406 302.140625 141.691406 L 311.808594 141.691406 L 311.808594 122.375 L 295.125 122.375 L 295.523438 125.566406 C 295.703125 127.003906 294.683594 128.316406 293.246094 128.496094 C 293.132812 128.507812 293.023438 128.515625 292.914062 128.515625 C 291.609375 128.515625 290.476562 127.546875 290.3125 126.21875 L 290.296875 126.082031 L 283.398438 132.972656 C 286.867188 134.136719 289.394531 137.386719 289.394531 141.242188 Z M 289.394531 141.242188 " fill-opacity="1" fill-rule="nonzero"/><path fill="#ffffff" d="M 280.617188 144.761719 C 282.558594 144.761719 284.136719 143.183594 284.136719 141.242188 C 284.136719 139.304688 282.558594 137.726562 280.617188 137.726562 L 274.46875 137.726562 C 272.527344 137.726562 270.949219 139.304688 270.949219 141.242188 C 270.949219 143.183594 272.527344 144.761719 274.46875 144.761719 Z M 280.617188 144.761719 " fill-opacity="1" fill-rule="nonzero"/><path fill="#ffffff" d="M 182.457031 306.414062 C 183.308594 308.023438 183.804688 309.957031 183.804688 312.066406 C 183.804688 313.507812 183.574219 314.871094 183.15625 316.101562 C 191.953125 314.914062 200.679688 313.109375 209.1875 310.6875 C 217.007812 308.460938 224.703125 305.714844 232.179688 302.480469 C 225.835938 302.753906 219.476562 303.105469 213.164062 303.546875 C 202.953125 304.257812 192.667969 305.257812 182.457031 306.414062 Z M 182.457031 306.414062 " fill-opacity="1" fill-rule="nonzero"/><path fill="#ffffff" d="M 175.632812 307.144531 C 174.257812 307.144531 172.71875 309.25 172.71875 312.066406 C 172.71875 314.84375 174.214844 316.921875 175.574219 316.980469 C 175.683594 316.96875 175.792969 316.953125 175.898438 316.945312 C 177.199219 316.699219 178.550781 314.707031 178.550781 312.070312 C 178.546875 309.25 177.007812 307.144531 175.632812 307.144531 Z M 175.632812 307.144531 " fill-opacity="1" fill-rule="nonzero"/><g clip-path="url(#9d6c9067d6)"><path fill="#ffffff" d="M 119.097656 280.515625 C 123.589844 284.714844 126.453125 290.921875 126.453125 297.859375 C 126.453125 310.480469 117 320.75 105.378906 320.75 C 93.757812 320.75 84.304688 310.480469 84.304688 297.859375 C 84.304688 288.378906 89.632812 280.230469 97.207031 276.757812 L 86.425781 274.90625 C 80.605469 280.808594 77.261719 289.082031 77.261719 297.859375 C 77.261719 315.035156 89.871094 329.011719 105.375 329.011719 C 120.878906 329.011719 133.492188 315.035156 133.492188 297.859375 C 133.492188 292.371094 132.148438 287.046875 129.691406 282.335938 Z M 119.097656 280.515625 " fill-opacity="1" fill-rule="nonzero"/></g><path fill="#ffffff" d="M 175.308594 301.917969 C 187.714844 300.394531 200.328125 299.179688 212.800781 298.308594 C 215.261719 298.136719 217.746094 298.023438 220.222656 297.875 L 136.011719 283.417969 C 137.808594 287.953125 138.75 292.859375 138.75 297.859375 C 138.75 302.015625 138.078125 305.992188 136.894531 309.71875 L 168.78125 306.472656 C 170.15625 303.832031 172.496094 302.109375 175.222656 301.945312 C 175.253906 301.941406 175.277344 301.921875 175.308594 301.917969 Z M 175.308594 301.917969 " fill-opacity="1" fill-rule="nonzero"/><g clip-path="url(#2eb447aa09)"><path fill="#ffffff" d="M 333.539062 272.316406 C 331.382812 272.351562 329.234375 272.515625 327.105469 272.820312 C 323.867188 273.28125 320.871094 274.054688 318.046875 274.996094 C 329.417969 275.3125 338.585938 285.433594 338.585938 297.859375 C 338.585938 310.480469 329.128906 320.75 317.507812 320.75 C 305.886719 320.75 296.433594 310.480469 296.433594 297.859375 C 296.433594 293.175781 297.742188 288.820312 299.96875 285.191406 C 298.59375 286.34375 297.316406 287.484375 296.210938 288.578125 C 295.820312 289.132812 295.425781 289.691406 294.988281 290.253906 C 293.355469 292.363281 291.492188 294.3125 289.460938 296.136719 C 289.429688 296.707031 289.390625 297.28125 289.390625 297.859375 C 289.390625 315.039062 302.003906 329.015625 317.507812 329.015625 C 333.007812 329.015625 345.621094 315.039062 345.621094 297.859375 C 345.625 287.621094 341.105469 278.15625 333.539062 272.316406 Z M 333.539062 272.316406 " fill-opacity="1" fill-rule="nonzero"/></g><path fill="#ffffff" d="M 298.554688 271.777344 C 300.835938 265.5625 303.199219 259.140625 309.515625 253 C 309.515625 252.996094 309.519531 252.996094 309.523438 252.988281 C 309.523438 252.988281 309.527344 252.984375 309.53125 252.980469 C 313.539062 249.085938 318.402344 246.019531 324.003906 243.851562 C 322.890625 224.976562 319.855469 206.191406 314.96875 187.984375 C 311.476562 174.945312 306.9375 162.082031 301.558594 149.636719 L 298.695312 153.640625 C 300.027344 167.382812 301.039062 181.753906 301.691406 196.398438 C 303.59375 239.09375 300.90625 253.523438 295.285156 265.210938 C 291.382812 273.324219 286.039062 280.796875 279.402344 287.425781 C 278.90625 287.921875 278.242188 288.195312 277.542969 288.195312 L 194.878906 288.195312 L 271.109375 301.28125 C 279.511719 297.867188 286.148438 293.074219 290.839844 287.035156 C 294.84375 281.878906 296.730469 276.746094 298.554688 271.777344 Z M 298.554688 271.777344 " fill-opacity="1" fill-rule="nonzero"/><path fill="#ffffff" d="M 246.664062 275.179688 L 246.542969 272.957031 C 242.949219 273.984375 239.363281 274.488281 235.917969 274.488281 C 226.75 274.492188 218.574219 270.960938 213.917969 264.421875 C 210.164062 259.160156 208.914062 251.90625 210.398438 243.996094 C 211.660156 237.277344 215.019531 232.246094 218.128906 228.84375 L 185.492188 227.1875 C 185.996094 227.554688 186.527344 227.886719 187.003906 228.285156 C 193.34375 233.601562 200.617188 244.578125 200.238281 258.007812 C 199.925781 268.917969 194.679688 277.316406 189.605469 282.945312 L 249.585938 282.945312 C 247.914062 280.773438 246.828125 278.097656 246.664062 275.179688 Z M 246.664062 275.179688 " fill-opacity="1" fill-rule="nonzero"/><path fill="#ffffff" d="M 277.992188 101.324219 C 277.992188 106.558594 274.972656 110.980469 271.394531 110.980469 C 267.816406 110.980469 264.796875 106.554688 264.796875 101.324219 C 264.796875 96.089844 267.816406 91.664062 271.394531 91.664062 C 274.972656 91.664062 277.992188 96.085938 277.992188 101.324219 Z M 277.992188 101.324219 " fill-opacity="1" fill-rule="nonzero"/><path fill="#ffffff" d="M 286.410156 103.949219 L 287.519531 103.949219 L 288.84375 114.496094 C 289.007812 115.824219 290.140625 116.792969 291.445312 116.792969 C 291.554688 116.792969 291.664062 116.789062 291.773438 116.773438 C 293.214844 116.59375 294.238281 115.28125 294.054688 113.84375 L 292.449219 100.996094 C 292.28125 99.683594 291.164062 98.699219 289.839844 98.699219 L 286.410156 98.699219 C 284.957031 98.699219 283.785156 99.875 283.785156 101.324219 C 283.785156 102.769531 284.957031 103.949219 286.410156 103.949219 Z M 286.410156 103.949219 " fill-opacity="1" fill-rule="nonzero"/><path fill="#ffffff" d="M 145.347656 60.957031 L 182.238281 60.957031 C 183.691406 60.957031 184.867188 59.78125 184.867188 58.332031 C 184.867188 56.882812 183.691406 55.707031 182.238281 55.707031 L 145.347656 55.707031 C 143.894531 55.707031 142.71875 56.882812 142.71875 58.332031 C 142.71875 59.78125 143.894531 60.957031 145.347656 60.957031 Z M 145.347656 60.957031 " fill-opacity="1" fill-rule="nonzero"/><path fill="#ffffff" d="M 83.863281 76.308594 L 179.164062 76.308594 C 180.617188 76.308594 181.792969 75.132812 181.792969 73.683594 C 181.792969 72.238281 180.617188 71.0625 179.164062 71.0625 L 83.863281 71.0625 C 82.410156 71.0625 81.234375 72.238281 81.234375 73.683594 C 81.234375 75.132812 82.410156 76.308594 83.863281 76.308594 Z M 83.863281 76.308594 " fill-opacity="1" fill-rule="nonzero"/><path fill="#ffffff" d="M 111.53125 104.839844 C 110.078125 104.839844 108.902344 106.015625 108.902344 107.464844 C 108.902344 108.914062 110.078125 110.089844 111.53125 110.089844 L 173.015625 110.089844 C 174.46875 110.089844 175.644531 108.914062 175.644531 107.464844 C 175.644531 106.015625 174.46875 104.839844 173.015625 104.839844 Z M 111.53125 104.839844 " fill-opacity="1" fill-rule="nonzero"/><path fill="#ffffff" d="M 74.636719 128.515625 L 184.101562 128.515625 C 185.554688 128.515625 186.730469 127.339844 186.730469 125.890625 C 186.730469 124.441406 185.554688 123.265625 184.101562 123.265625 L 74.636719 123.265625 C 73.183594 123.265625 72.011719 124.441406 72.011719 125.890625 C 72.011719 127.339844 73.183594 128.515625 74.636719 128.515625 Z M 74.636719 128.515625 " fill-opacity="1" fill-rule="nonzero"/><path fill="#ffffff" d="M 177.292969 138.617188 L 123.828125 138.617188 C 122.375 138.617188 121.199219 139.792969 121.199219 141.242188 C 121.199219 142.691406 122.375 143.867188 123.828125 143.867188 L 177.296875 143.867188 C 178.75 143.867188 179.925781 142.691406 179.925781 141.242188 C 179.925781 139.792969 178.746094 138.617188 177.292969 138.617188 Z M 177.292969 138.617188 " fill-opacity="1" fill-rule="nonzero"/><path fill="#ffffff" d="M 40.824219 168.433594 L 67.011719 168.433594 C 68.464844 168.433594 69.640625 167.257812 69.640625 165.808594 C 69.640625 164.359375 68.464844 163.183594 67.011719 163.183594 L 40.824219 163.183594 C 39.371094 163.183594 38.195312 164.359375 38.195312 165.808594 C 38.195312 167.257812 39.371094 168.433594 40.824219 168.433594 Z M 40.824219 168.433594 " fill-opacity="1" fill-rule="nonzero"/><path fill="#ffffff" d="M 66.972656 181.164062 C 66.972656 179.714844 65.796875 178.539062 64.34375 178.539062 L 50.042969 178.539062 C 48.589844 178.539062 47.414062 179.714844 47.414062 181.164062 C 47.414062 182.613281 48.589844 183.789062 50.042969 183.789062 L 64.339844 183.789062 C 65.796875 183.789062 66.972656 182.617188 66.972656 181.164062 Z M 66.972656 181.164062 " fill-opacity="1" fill-rule="nonzero"/><path fill="#ffffff" d="M 74.636719 252.242188 L 62.339844 252.242188 C 60.886719 252.242188 59.714844 253.414062 59.714844 254.867188 C 59.714844 256.316406 60.886719 257.492188 62.339844 257.492188 L 74.636719 257.492188 C 76.089844 257.492188 77.265625 256.316406 77.265625 254.867188 C 77.265625 253.414062 76.089844 252.242188 74.636719 252.242188 Z M 74.636719 252.242188 " fill-opacity="1" fill-rule="nonzero"/><path fill="#ffffff" d="M 62.339844 289.089844 L 46.96875 289.089844 C 45.515625 289.089844 44.339844 290.265625 44.339844 291.714844 C 44.339844 293.167969 45.515625 294.339844 46.96875 294.339844 L 62.339844 294.339844 C 63.792969 294.339844 64.96875 293.167969 64.96875 291.714844 C 64.96875 290.265625 63.792969 289.089844 62.339844 289.089844 Z M 62.339844 289.089844 " fill-opacity="1" fill-rule="nonzero"/><path fill="#ffffff" d="M 46.96875 233.8125 C 45.515625 233.8125 44.339844 234.988281 44.339844 236.4375 C 44.339844 237.890625 45.515625 239.0625 46.96875 239.0625 L 71.5625 239.0625 C 73.015625 239.0625 74.191406 237.890625 74.191406 236.4375 C 74.191406 234.988281 73.015625 233.8125 71.5625 233.8125 Z M 46.96875 233.8125 " fill-opacity="1" fill-rule="nonzero"/><g clip-path="url(#75899b7af8)"><path fill="#ffffff" d="M 55.746094 196.519531 C 55.746094 195.066406 54.570312 193.894531 53.117188 193.894531 L 28.523438 193.894531 C 27.070312 193.894531 25.894531 195.066406 25.894531 196.519531 C 25.894531 197.96875 27.070312 199.144531 28.523438 199.144531 L 53.117188 199.144531 C 54.570312 199.144531 55.746094 197.96875 55.746094 196.519531 Z M 55.746094 196.519531 " fill-opacity="1" fill-rule="nonzero"/></g></svg>